<svg xmlns="http://www.w3.org/2000/svg" xmlns:xlink="http://www.w3.org/1999/xlink" width="1440" height="568" viewBox="0 0 1440 568">
    <defs>
        <path id="a" d="M0 0h1440v568H0z"/>
        <path id="c" d="M847.943 83.46c-35.467 16.382-70.247 7.34-114.45-22.18C603.19-25.746 510.972-13.937 389.56 64.638c-25.868 16.743-67.625 44.576-137.623 24.77C149.494 60.417 44.135 89.73.044 170.371h1161.727c-33.065-63.001-156.75-159.454-313.828-86.912"/>
        <linearGradient id="d" x1="96.571%" x2="9.038%" y1="51.529%" y2="49.648%">
            <stop offset="0%" stop-color="#1C8EB8"/>
            <stop offset="100%" stop-color="#C5F9FF"/>
        </linearGradient>
        <path id="f" d="M.19 93.702c5.065-9.4 30.387-27.88 62.524-22.873 35.079 5.468 42.787-6.458 57.248-11.417 26.478-9.078 46.914 20.875 56.066 1.87 11.685-24.264 30.653-36.258 88.496-12.391 13.74 5.67 12.797-6.89 19.051-14.226 12.146-14.242 26.853 12.047 33.602 10.605 7.662-1.64 5.323-12.83 9.811-22.412 9.349-19.964 25.484-1.2 36.607-2.849C374.67 18.37 380.6-3.603 393.138.84c26.79 9.49 18.38 65.27 16.724 77.714 7.619-10.619 21.033-18.416 21.033 15.149H.19"/>
        <linearGradient id="g" x1="59.729%" x2="33.319%" y1="52.726%" y2="47.548%">
            <stop offset="0%" stop-color="#0B5C79"/>
            <stop offset="100%" stop-color="#3EC3D1"/>
        </linearGradient>
        <path id="i" d="M2.74 52.282h129.946c6.753-26.83-19.77-13.415-19.77-13.415s9.997-28.221-.249-25.291c-9.894 2.828-14.234 24.811-14.234 24.811s-5.33-35.9-17.02-38.254c-7.587-1.528-1.633 34.134-1.633 34.134s-4.477-3.81-10.92-3.907c-5.413-.082-4.102 6.881-4.102 6.881s-11.291-23.154-17.17-22.853c-7.374.378.533 24.702.533 24.702s-14.517-15.815-20.237-15.4c-7.948.576 5.909 23.16 5.909 23.16s-10.53-6.336-23.057-5.29c-9.04.755-12.508 4.407-7.997 10.722"/>
        <linearGradient id="j" x1="97.808%" x2="31.234%" y1="61.869%" y2="49.704%">
            <stop offset="0%" stop-color="#3EC3D1"/>
            <stop offset="100%" stop-color="#6CE2EF"/>
        </linearGradient>
        <path id="l" d="M74.1 101.56c0 55.832-22.175 101.494-37.551 101.494C21.164 203.054.783 142.1.783 86.27c0-55.832 24.902-91.83 42.794-85.397C63.747 8.12 74.101 45.73 74.101 101.56"/>
        <linearGradient id="m" x1="57.456%" x2="43.304%" y1="92.525%" y2="5.376%">
            <stop offset="0%" stop-color="#0A6373"/>
            <stop offset="100%" stop-color="#3ED1D1"/>
        </linearGradient>
        <path id="o" d="M118.821 201.216H.111V82.29L59.466.432l59.356 81.857v118.927"/>
        <linearGradient id="p" x1="33.243%" x2="60.041%" y1="18.133%" y2="101.697%">
            <stop offset="0%" stop-color="#FFF"/>
            <stop offset="100%" stop-color="#FFE8B8"/>
        </linearGradient>
        <path id="r" d="M.466.057h136.265v97.17H.466z"/>
        <linearGradient id="s" x1="-23.769%" x2="98.4%" y1="9.796%" y2="76.375%">
            <stop offset="0%" stop-color="#FFF"/>
            <stop offset="100%" stop-color="#FFE8B8"/>
        </linearGradient>
        <linearGradient id="u" x1="33.151%" x2="59.046%" y1="97.789%" y2="24.349%">
            <stop offset="0%" stop-color="#F7CE8F"/>
            <stop offset="100%" stop-color="#D97D61"/>
        </linearGradient>
        <path id="v" d="M.53.432h140l59.35 81.857H59.886L.53.432"/>
        <linearGradient id="w" x1="44.685%" x2="57.354%" y1="61.278%" y2="34.389%">
            <stop offset="0%" stop-color="#D95E36"/>
            <stop offset="100%" stop-color="#80331A"/>
        </linearGradient>
        <path id="y" d="M39.285.511H.695l38.59 56.221V.512"/>
        <linearGradient id="z" x1="35.583%" x2="66.799%" y1="-25.113%" y2="36.637%">
            <stop offset="0%" stop-color="#FFF"/>
            <stop offset="100%" stop-color="#FFE8B8"/>
        </linearGradient>
        <path id="B" d="M144.966 47.58c-3.082-4.982-9.332-9.736-17.241-10.894-13.188-1.929-8.662-16.557-20.124-20.428-12.087-4.084-13.106 5.652-44.017-11.902C54.942-.553 38.915-2.092 31.8 7.234c-4.165 5.459-5.186 13.397-3.962 20.007 1.176 6.36 5.929 15.542.764 21.258-4.905 5.428-13.531 3.71-19.505 7.157-6.07 3.502-8.41 10.58-8.501 17.247-.217 15.572 6.453 32.362 16.33 44.243 20.586 24.76 57.68 30.68 86.972 20.016 17.31-6.3 30.853-19.131 38.756-35.74 7.523-15.806 12.11-37.988 2.312-53.842"/>
        <linearGradient id="C" x1="69.843%" x2="32.39%" y1="92.888%" y2="14.096%">
            <stop offset="0%" stop-color="#0A6373"/>
            <stop offset="100%" stop-color="#3ED1D1"/>
        </linearGradient>
        <path id="E" d="M99.066 15.183c-6.526.31-13.328 1.763-35.485-10.83C54.945-.552 38.92-2.09 31.798 7.236c-4.159 5.459-5.183 13.395-3.957 20.007 1.173 6.356 5.93 15.542.758 21.258-4.905 5.426-13.53 3.707-19.502 7.157C3.03 59.161.684 66.233.6 72.898c-.224 15.575 6.45 32.368 16.323 44.245a57.731 57.731 0 0 0 2.954 3.3c37.179 20.264 10.257-41.52 22.668-52.736 7.858-7.103 23.223 2.96 30.185-2.029 3.476-2.489 3.198-7.414.49-11.163-8.36-11.548-21.794-23.843-15.15-30.83 3.55-3.738 10.62-1.687 23.936-1.644 15.386.044 23.318-3.931 17.06-6.858"/>
        <linearGradient id="F" x1="65.225%" x2="35.943%" y1="82.087%" y2="4.586%">
            <stop offset="0%" stop-color="#3EC3D1"/>
            <stop offset="100%" stop-color="#6CE2EF"/>
        </linearGradient>
        <path id="H" d="M227.483 46.113c-3.88-9.399-23.249-27.88-47.826-22.872-26.838 5.468-32.731-6.458-43.797-11.417-20.25-9.079-30.224 13.446-42.882 1.87C75.297-2.472 60.976-4.12 49.558 10.775 33.146 32.196 6.238 8.476.195 46.113h227.289"/>
        <linearGradient id="I" x1="50.134%" x2="48.391%" y1="52.658%" y2="44.213%">
            <stop offset="0%" stop-color="#0B5C79"/>
            <stop offset="100%" stop-color="#3EC3D1"/>
        </linearGradient>
        <path id="K" d="M102.592 47.876H.212c.58-31.388 8.822-11.24 8.822-11.24s2.71-22.938 8.7-23.867c5.656-.879 8.32 22.505 8.32 22.505S32.205 1.864 40.34.576c7.143-1.13 1.53 30.961 1.53 30.961s4.188-3.298 10.204-3.545c6.695-.275 3.959 6.242 3.959 6.242s8.365-14.511 13.863-14.238c6.887.342 2.146 15.052 2.146 15.052s5.067-4.844 10.38-5.527c10.397-1.335-.642 11.992-.642 11.992s7.38-3.026 20.1-4.95c12.411-1.877 9.834 5.219.712 11.313"/>
        <linearGradient id="L" x1="-2.684%" x2="75.871%" y1="60.938%" y2="48.178%">
            <stop offset="0%" stop-color="#3EC3D1"/>
            <stop offset="100%" stop-color="#6CE2EF"/>
        </linearGradient>
        <path id="N" d="M140.452 35.574c.307-18.657-16.265-24.525-32.336-19.316-12.156 3.94-13.142 5.652-43.929-11.902-8.603-4.909-24.62-6.448-31.808 2.878-4.204 5.459-5.277 13.397-4.107 20.007 1.134 6.36 5.823 15.542.615 21.258-4.943 5.428-13.564 3.71-19.563 7.157-6.096 3.502-8.48 10.58-8.62 17.247-.335 15.572 5.559 32.936 16.01 44.243 21.058 22.8 58.082 31.61 92.29 22.889 75.43-19.227 47.061-59.827 38.22-70.59-9.517-11.573-6.984-21.007-6.772-33.87"/>
        <linearGradient id="O" x1="73.718%" x2="27.684%" y1="88.372%" y2="19.128%">
            <stop offset="0%" stop-color="#0A6373"/>
            <stop offset="100%" stop-color="#3ED1D1"/>
        </linearGradient>
        <path id="Q" d="M109.049 15.984c-.308.087-.625.182-.933.278-12.156 3.931-13.142 5.652-43.929-11.91-8.612-4.904-24.62-6.441-31.799 2.884-4.213 5.459-5.295 13.395-4.116 20.007 1.134 6.356 5.814 15.542.615 21.258-4.943 5.426-13.555 3.707-19.554 7.157C3.228 59.161.844 66.233.695 72.898c-.326 15.575 6.219 32.368 16.018 44.245a59.878 59.878 0 0 0 4.082 4.487c33.778 20.563-1.346-23.853 26.538-42.194 13.784-9.08 40.393-18.619 28.808-33.07-8.462-10.566-14.883-14.68-12.297-20.49 1.416-3.205 5.56-6.217 18.64-3.835 17.891 3.269 30.954-3.087 26.565-6.057"/>
        <linearGradient id="R" x1="67.573%" x2="32.413%" y1="72.155%" y2="15.69%">
            <stop offset="0%" stop-color="#3EC3D1"/>
            <stop offset="100%" stop-color="#6CE2EF"/>
        </linearGradient>
        <circle id="U" cx="34.5" cy="34.5" r="34.5"/>
        <filter id="T" width="137.7%" height="137.7%" x="-18.8%" y="-11.6%" filterUnits="objectBoundingBox">
            <feOffset dy="5" in="SourceAlpha" result="shadowOffsetOuter1"/>
            <feGaussianBlur in="shadowOffsetOuter1" result="shadowBlurOuter1" stdDeviation="3.5"/>
            <feColorMatrix in="shadowBlurOuter1" values="0 0 0 0 0.644185799 0 0 0 0 0.644185799 0 0 0 0 0.644185799 0 0 0 0.213824728 0"/>
        </filter>
        <circle id="W" cx="38.5" cy="38.5" r="38.5"/>
        <filter id="V" width="139%" height="139%" x="-19.5%" y="-11.7%" filterUnits="objectBoundingBox">
            <feOffset dy="6" in="SourceAlpha" result="shadowOffsetOuter1"/>
            <feGaussianBlur in="shadowOffsetOuter1" result="shadowBlurOuter1" stdDeviation="4"/>
            <feColorMatrix in="shadowBlurOuter1" values="0 0 0 0 0.644185799 0 0 0 0 0.644185799 0 0 0 0 0.644185799 0 0 0 0.213824728 0"/>
        </filter>
        <circle id="Y" cx="26.95" cy="26.95" r="26.95"/>
        <filter id="X" width="140.8%" height="140.8%" x="-20.4%" y="-13%" filterUnits="objectBoundingBox">
            <feOffset dy="4" in="SourceAlpha" result="shadowOffsetOuter1"/>
            <feGaussianBlur in="shadowOffsetOuter1" result="shadowBlurOuter1" stdDeviation="3"/>
            <feColorMatrix in="shadowBlurOuter1" values="0 0 0 0 0.644185799 0 0 0 0 0.644185799 0 0 0 0 0.644185799 0 0 0 0.213824728 0"/>
        </filter>
        <circle id="aa" cx="31.185" cy="31.185" r="31.185"/>
        <filter id="Z" width="135.3%" height="135.3%" x="-17.6%" y="-11.2%" filterUnits="objectBoundingBox">
            <feOffset dy="4" in="SourceAlpha" result="shadowOffsetOuter1"/>
            <feGaussianBlur in="shadowOffsetOuter1" result="shadowBlurOuter1" stdDeviation="3"/>
            <feColorMatrix in="shadowBlurOuter1" values="0 0 0 0 0.644185799 0 0 0 0 0.644185799 0 0 0 0 0.644185799 0 0 0 0.213824728 0"/>
        </filter>
        <circle id="ac" cx="31.185" cy="31.185" r="31.185"/>
        <filter id="ab" width="135.3%" height="135.3%" x="-17.6%" y="-11.2%" filterUnits="objectBoundingBox">
            <feOffset dy="4" in="SourceAlpha" result="shadowOffsetOuter1"/>
            <feGaussianBlur in="shadowOffsetOuter1" result="shadowBlurOuter1" stdDeviation="3"/>
            <feColorMatrix in="shadowBlurOuter1" values="0 0 0 0 0.644185799 0 0 0 0 0.644185799 0 0 0 0 0.644185799 0 0 0 0.213824728 0"/>
        </filter>
        <circle id="ae" cx="27" cy="27" r="27"/>
        <filter id="ad" width="140.7%" height="140.7%" x="-20.4%" y="-13%" filterUnits="objectBoundingBox">
            <feOffset dy="4" in="SourceAlpha" result="shadowOffsetOuter1"/>
            <feGaussianBlur in="shadowOffsetOuter1" result="shadowBlurOuter1" stdDeviation="3"/>
            <feColorMatrix in="shadowBlurOuter1" values="0 0 0 0 0.644185799 0 0 0 0 0.644185799 0 0 0 0 0.644185799 0 0 0 0.213824728 0"/>
        </filter>
    </defs>
    <g fill="none" fill-rule="evenodd">
        <mask id="b" fill="#fff">
            <use xlink:href="#a"/>
        </mask>
        <use fill="#EBF4FA" xlink:href="#a"/>
        <path fill="#DFE3E8" d="M973 318h1v225h-1z" mask="url(#b)"/>
        <path fill="#DFE3E8" d="M1003 198h1v225h-1z" mask="url(#b)" opacity=".5"/>
        <path fill="#DFE3E8" d="M1069 253h1v225h-1z" mask="url(#b)"/>
        <path fill="#DFE3E8" d="M1167 227h1v225h-1z" mask="url(#b)" opacity=".5"/>
        <path fill="#DFE3E8" d="M1183 325h1v225h-1zM1126 176h1v225h-1z" mask="url(#b)"/>
        <g mask="url(#b)">
            <g transform="translate(308 403.433)">
                <mask id="e" fill="#fff">
                    <use xlink:href="#c"/>
                </mask>
                <path fill="url(#d)" d="M847.943 83.46c-35.467 16.382-70.247 7.34-114.45-22.18C603.19-25.746 510.972-13.937 389.56 64.638c-25.868 16.743-67.625 44.576-137.623 24.77C149.494 60.417 44.135 89.73.044 170.371h1161.727c-33.065-63.001-156.75-159.454-313.828-86.912" mask="url(#e)"/>
            </g>
            <g transform="translate(543.743 480.103)">
                <mask id="h" fill="#fff">
                    <use xlink:href="#f"/>
                </mask>
                <path fill="url(#g)" d="M.19 93.702c5.065-9.4 30.387-27.88 62.524-22.873 35.079 5.468 42.787-6.458 57.248-11.417 26.478-9.078 46.914 20.875 56.066 1.87 11.685-24.264 30.653-36.258 88.496-12.391 13.74 5.67 12.797-6.89 19.051-14.226 12.146-14.242 26.853 12.047 33.602 10.605 7.662-1.64 5.323-12.83 9.811-22.412 9.349-19.964 25.484-1.2 36.607-2.849C374.67 18.37 380.6-3.603 393.138.84c26.79 9.49 18.38 65.27 16.724 77.714 7.619-10.619 21.033-18.416 21.033 15.149H.19" mask="url(#h)"/>
            </g>
            <g transform="translate(660.734 521.522)">
                <mask id="k" fill="#fff">
                    <use xlink:href="#i"/>
                </mask>
                <path fill="url(#j)" d="M2.74 52.282h129.946c6.753-26.83-19.77-13.415-19.77-13.415s9.997-28.221-.249-25.291c-9.894 2.828-14.234 24.811-14.234 24.811s-5.33-35.9-17.02-38.254c-7.587-1.528-1.633 34.134-1.633 34.134s-4.477-3.81-10.92-3.907c-5.413-.082-4.102 6.881-4.102 6.881s-11.291-23.154-17.17-22.853c-7.374.378.533 24.702.533 24.702s-14.517-15.815-20.237-15.4c-7.948.576 5.909 23.16 5.909 23.16s-10.53-6.336-23.057-5.29c-9.04.755-12.508 4.407-7.997 10.722" mask="url(#k)"/>
            </g>
            <g transform="translate(1236.017 325)">
                <mask id="n" fill="#fff">
                    <use xlink:href="#l"/>
                </mask>
                <path fill="url(#m)" d="M74.1 101.56c0 55.832-22.175 101.494-37.551 101.494C21.164 203.054.783 142.1.783 86.27c0-55.832 24.902-91.83 42.794-85.397C63.747 8.12 74.101 45.73 74.101 101.56" mask="url(#n)"/>
            </g>
            <g transform="translate(942.218 372.588)">
                <mask id="q" fill="#fff">
                    <use xlink:href="#o"/>
                </mask>
                <path fill="url(#p)" d="M118.821 201.216H.111V82.29L59.466.432l59.356 81.857v118.927" mask="url(#q)"/>
            </g>
            <path fill="#F7CE8F" d="M1061.04 573.804h139.994V454.878h-139.995z"/>
            <g transform="translate(1082.96 476.578)">
                <mask id="t" fill="#fff">
                    <use xlink:href="#r"/>
                </mask>
                <path fill="url(#s)" d="M.466 97.227h136.265V.057H.466z" mask="url(#t)"/>
            </g>
            <path fill="url(#u)" d="M911.69 248.804h139.995v-97.169H911.69z" transform="translate(308 325)"/>
            <path fill="#9D9D9C" d="M1102.083 573.804h98.95v-75.271h-98.95z"/>
            <g transform="translate(1001.154 372.588)">
                <mask id="x" fill="#fff">
                    <use xlink:href="#v"/>
                </mask>
                <path fill="url(#w)" d="M.53.432h140l59.35 81.857H59.886L.53.432" mask="url(#x)"/>
            </g>
            <path fill="#F7CE8F" d="M1102.083 573.804h5.78v-75.271h-5.78z"/>
            <path fill="#415680" d="M1107.862 500.18h93.172v-1.647h-93.172zM1107.862 506.315h93.172v-1.647h-93.172zM1107.862 512.45h93.172v-1.646h-93.172zM1107.862 518.586h93.172v-1.647h-93.172zM1107.862 524.721h93.172v-1.647h-93.172zM1107.862 530.857h93.172v-1.647h-93.172zM1107.862 536.992h93.172v-1.647h-93.172zM1107.862 543.128h93.172v-1.647h-93.172zM1107.862 549.263h93.172v-1.646h-93.172zM1107.862 555.398h93.172v-1.646h-93.172zM1107.862 561.534h93.172v-1.647h-93.172zM1107.862 567.67h93.172v-1.648h-93.172z"/>
            <path fill="#2E3E5C" d="M967.408 551.906h24.968v-75.27h-24.968z"/>
            <path fill="#F7CE8F" d="M967.408 551.906h5.776v-75.27h-5.776z"/>
            <path fill="#2E3E5C" d="M1010.99 573.804h24.97v-97.169h-24.97z"/>
            <path fill="#F7CE8F" d="M1010.99 573.804h5.775v-97.169h-5.774zM1109.93 454.878h42.205v-56.222h-42.205z"/>
            <path fill="#2E3E5C" d="M1118.55 454.878h24.964V414.35h-24.964z"/>
            <path fill="#FFF" d="M1137.656 454.878h5.858V414.35h-5.858z"/>
            <g transform="translate(1070.645 398.145)">
                <mask id="A" fill="#fff">
                    <use xlink:href="#y"/>
                </mask>
                <path fill="url(#z)" d="M39.285.511H.695l38.59 56.221V.512" mask="url(#A)"/>
            </g>
            <path fill="#36A9E1" d="M978.775 551.906h13.6v-62.923h-13.6zM1022.353 573.804h13.608v-84.82h-13.608z"/>
            <path fill="#FFF" d="M1016.765 501.827h19.196v-3.294h-19.196zM973.184 501.827h19.192v-3.294h-19.192z"/>
            <path fill="#36A9E1" d="M1124.057 454.878h13.599v-28.18h-13.6z"/>
            <path fill="#FFF" d="M878.212 573.804h-2.468v-26.83h3.938l-1.47 26.83M893.137 573.804h-2.34l-4.262-26.83h3.94l2.662 26.83"/>
            <path fill="#FFF" d="M893.18 524.008h-2.063l-4.582 22.966h3.94l2.706-22.966M875.744 551.96h14.73v-4.986h-14.73z"/>
            <path fill="#FFF" d="M883.252 551.96h10.792v-4.986h-10.792zM814.618 573.804h-2.468v-26.83h3.937l-1.47 26.83M829.542 573.804h-2.34l-4.261-26.83h3.938l2.663 26.83"/>
            <path fill="#FFF" d="M829.587 524.008h-2.064l-4.582 22.966h3.938l2.708-22.966M812.15 551.96h14.73v-4.986h-14.73z"/>
            <path fill="#FFF" d="M806.706 551.96h76.546v-4.986h-76.546zM819.93 528.994h76.546l.903-4.986h-76.546l-.903 4.986M818.542 536.65h76.547l.903-4.987h-76.546l-.904 4.986"/>
            <g transform="translate(709.114 362.894)">
                <mask id="D" fill="#fff">
                    <use xlink:href="#B"/>
                </mask>
                <path fill="url(#C)" d="M144.966 47.58c-3.082-4.982-9.332-9.736-17.241-10.894-13.188-1.929-8.662-16.557-20.124-20.428-12.087-4.084-13.106 5.652-44.017-11.902C54.942-.553 38.915-2.092 31.8 7.234c-4.165 5.459-5.186 13.397-3.962 20.007 1.176 6.36 5.929 15.542.764 21.258-4.905 5.428-13.531 3.71-19.505 7.157-6.07 3.502-8.41 10.58-8.501 17.247-.217 15.572 6.453 32.362 16.33 44.243 20.586 24.76 57.68 30.68 86.972 20.016 17.31-6.3 30.853-19.131 38.756-35.74 7.523-15.806 12.11-37.988 2.312-53.842" mask="url(#D)"/>
            </g>
            <g transform="translate(709.114 362.894)">
                <mask id="G" fill="#fff">
                    <use xlink:href="#E"/>
                </mask>
                <path fill="url(#F)" d="M99.066 15.183c-6.526.31-13.328 1.763-35.485-10.83C54.945-.552 38.92-2.09 31.798 7.236c-4.159 5.459-5.183 13.395-3.957 20.007 1.173 6.356 5.93 15.542.758 21.258-4.905 5.426-13.53 3.707-19.502 7.157C3.03 59.161.684 66.233.6 72.898c-.224 15.575 6.45 32.368 16.323 44.245a57.731 57.731 0 0 0 2.954 3.3c37.179 20.264 10.257-41.52 22.668-52.736 7.858-7.103 23.223 2.96 30.185-2.029 3.476-2.489 3.198-7.414.49-11.163-8.36-11.548-21.794-23.843-15.15-30.83 3.55-3.738 10.62-1.687 23.936-1.644 15.386.044 23.318-3.931 17.06-6.858" mask="url(#G)"/>
            </g>
            <path fill="#2E3E5C" d="M791.526 573.804h-7.623l-.308-50.196-8.35-78.095 1.995-2.537 10.886 76.21 7.749-50.159 1.87 1.945-7.617 57.06 1.398 45.772"/>
            <path fill="#2E3E5C" d="M811.34 464.886l-17.77 26.26v-2.163l16.759-25.132 1.01 1.035M780.37 485.338l-15.138-20.54.836-.947 14.62 18.962-.318 2.525M784.106 441.597l-4.464 24.693-.998-2.439 4.443-22.564 1.019.31"/>
            <g transform="translate(1230.739 527.691)">
                <mask id="J" fill="#fff">
                    <use xlink:href="#H"/>
                </mask>
                <path fill="url(#I)" d="M227.483 46.113c-3.88-9.399-23.249-27.88-47.826-22.872-26.838 5.468-32.731-6.458-43.797-11.417-20.25-9.079-30.224 13.446-42.882 1.87C75.297-2.472 60.976-4.12 49.558 10.775 33.146 32.196 6.238 8.476.195 46.113h227.289" mask="url(#J)"/>
            </g>
            <g transform="translate(1309.906 525.929)">
                <mask id="M" fill="#fff">
                    <use xlink:href="#K"/>
                </mask>
                <path fill="url(#L)" d="M102.592 47.876H.212c.58-31.388 8.822-11.24 8.822-11.24s2.71-22.938 8.7-23.867c5.656-.879 8.32 22.505 8.32 22.505S32.205 1.864 40.34.576c7.143-1.13 1.53 30.961 1.53 30.961s4.188-3.298 10.204-3.545c6.695-.275 3.959 6.242 3.959 6.242s8.365-14.511 13.863-14.238c6.887.342 2.146 15.052 2.146 15.052s5.067-4.844 10.38-5.527c10.397-1.335-.642 11.992-.642 11.992s7.38-3.026 20.1-4.95c12.411-1.877 9.834 5.219.712 11.313" mask="url(#M)"/>
            </g>
            <g transform="translate(1258.008 362.894)">
                <mask id="P" fill="#fff">
                    <use xlink:href="#N"/>
                </mask>
                <path fill="url(#O)" d="M140.452 35.574c.307-18.657-16.265-24.525-32.336-19.316-12.156 3.94-13.142 5.652-43.929-11.902-8.603-4.909-24.62-6.448-31.808 2.878-4.204 5.459-5.277 13.397-4.107 20.007 1.134 6.36 5.823 15.542.615 21.258-4.943 5.428-13.564 3.71-19.563 7.157-6.096 3.502-8.48 10.58-8.62 17.247-.335 15.572 5.559 32.936 16.01 44.243 21.058 22.8 58.082 31.61 92.29 22.889 75.43-19.227 47.061-59.827 38.22-70.59-9.517-11.573-6.984-21.007-6.772-33.87" mask="url(#P)"/>
            </g>
            <g transform="translate(1258.008 362.894)">
                <mask id="S" fill="#fff">
                    <use xlink:href="#Q"/>
                </mask>
                <path fill="url(#R)" d="M109.049 15.984c-.308.087-.625.182-.933.278-12.156 3.931-13.142 5.652-43.929-11.91-8.612-4.904-24.62-6.441-31.799 2.884-4.213 5.459-5.295 13.395-4.116 20.007 1.134 6.356 5.814 15.542.615 21.258-4.943 5.426-13.555 3.707-19.554 7.157C3.228 59.161.844 66.233.695 72.898c-.326 15.575 6.219 32.368 16.018 44.245a59.878 59.878 0 0 0 4.082 4.487c33.778 20.563-1.346-23.853 26.538-42.194 13.784-9.08 40.393-18.619 28.808-33.07-8.462-10.566-14.883-14.68-12.297-20.49 1.416-3.205 5.56-6.217 18.64-3.835 17.891 3.269 30.954-3.087 26.565-6.057" mask="url(#S)"/>
            </g>
            <path fill="#2E3E5C" d="M1337.931 573.804h7.627l-.669-50.196 1.628-82.011-1.97-2.537-4.153 80.125-11.277-49.236-1.882 1.946 11.092 56.136-.396 45.773"/>
            <path fill="#2E3E5C" d="M1357.74 453.037l-12.956 19.36-.027 3.86 14.33-22.064-1.346-1.156M1338.468 445.677l5.674 11.517-.018 2.488-6.518-13.647.862-.358M1321.2 476.507l9.545 8.558.783 2.192-11.145-10.15.818-.6"/>
            <path fill="#3FC3D1" d="M1304.866 573.804c-2.622-6.559-5.34-11.348-7.556-10.814-2.19.526-2.789 4.903-2.551 10.814h10.107"/>
        </g>
        <g mask="url(#b)">
            <g transform="translate(1149 255)">
                <use fill="#000" filter="url(#T)" xlink:href="#U"/>
                <use fill="#FFF" xlink:href="#U"/>
            </g>
            <path fill="#B6ECEB" d="M1184 274l-10 12h20l-10-12"/>
            <text fill="#454F5B" font-family="OpenSans" font-weight="700" font-size="17.28" transform="translate(1166 274)">
                <tspan x=".353" y="28">25%</tspan>
            </text>
            <g transform="translate(936 241)">
                <use fill="#000" filter="url(#V)" xlink:href="#W"/>
                <use fill="#FFF" xlink:href="#W"/>
            </g>
            <path fill="#007ACE" d="M975 262l-11 13h22l-11-13"/>
            <text fill="#454F5B" font-family="OpenSans" font-weight="700" font-size="19.2" transform="translate(955 262)">
                <tspan x=".392" y="31">30%</tspan>
            </text>
            <g opacity=".5">
                <g transform="translate(977 149)">
                    <use fill="#000" filter="url(#X)" xlink:href="#Y"/>
                    <use fill="#FFF" xlink:href="#Y"/>
                </g>
                <path fill="#007ACE" d="M1004.3 163.7l-7.7 9.1h15.4l-7.7-9.1"/>
                <text fill="#454F5B" font-family="OpenSans" font-weight="700" font-size="13.44" transform="translate(990.3 163.7)">
                    <tspan x=".275" y="22.1">12%</tspan>
                </text>
            </g>
            <g>
                <g transform="translate(1038 195)">
                    <use fill="#000" filter="url(#Z)" xlink:href="#aa"/>
                    <use fill="#FFF" xlink:href="#aa"/>
                </g>
                <path fill="#FFC48B" d="M1070 212l-9 10h17l-8-10"/>
                <text fill="#454F5B" font-family="OpenSans" font-weight="700" font-size="15.552" transform="translate(1053.39 211.01)">
                    <tspan x=".318" y="26.53">18%</tspan>
                </text>
            </g>
            <g opacity=".5">
                <g transform="translate(1136 169)">
                    <use fill="#000" filter="url(#ab)" xlink:href="#ac"/>
                    <use fill="#FFF" xlink:href="#ac"/>
                </g>
                <path fill="#FFC48B" d="M1168 186l-9 10h17l-8-10"/>
                <text fill="#454F5B" font-family="OpenSans" font-weight="700" font-size="15.552" transform="translate(1151.39 185.01)">
                    <tspan x=".318" y="26.53">12%</tspan>
                </text>
            </g>
            <g>
                <g transform="translate(1099 122)">
                    <use fill="#000" filter="url(#ad)" xlink:href="#ae"/>
                    <use fill="#FFF" xlink:href="#ae"/>
                </g>
                <path fill="#95CDB1" d="M1126 137l-8 9h15l-7-9"/>
                <text fill="#454F5B" font-family="OpenSans" font-weight="700" font-size="13.44" transform="translate(1112 137)">
                    <tspan x=".275" y="22">10%</tspan>
                </text>
            </g>
        </g>
    </g>
</svg>
