<svg xmlns="http://www.w3.org/2000/svg" width="118" height="116" viewBox="0 0 118 116">
    <g fill="none" fill-rule="evenodd" transform="translate(0 1)">
        <g transform="translate(12 20)">
            <circle cx="42.643" cy="47.5" r="41.837" fill="#E9EAEB" fill-rule="nonzero"/>
            <path fill="#C1F6FD" fill-rule="nonzero" d="M45.64 65.537a8.718 8.718 0 0 0-8.228-5.834H25.21V47.5l3.486 3.486h12.202c7.974 0 6.973-8.716 6.973-8.716H35.669L23.467 30.068h-6.973a6.973 6.973 0 0 0-6.972 6.973v26.147c0 5.775 4.683 10.459 10.459 10.459h15.688l10.459 20.919h9.67L45.64 65.537z"/>
            <path fill="#FFF" fill-rule="nonzero" stroke="#2A5082" stroke-width="2" d="M21.724 24.674c-4.867 0-8.716-3.982-8.716-8.894v-2.966c0-4.913 3.849-8.894 8.716-8.894 4.868 0 8.716 3.981 8.716 8.894v2.966c-.001 4.912-3.849 8.894-8.716 8.894z"/>
            <path stroke="#2A5082" stroke-width="2" d="M25.21 50.986h61.012M51.357 44.014h10.46v6.972M68.79 50.986v-6.972h10.459V23.095h-8.716"/>
            <path fill="#FFF" fill-rule="nonzero" stroke="#2A5082" stroke-width="2" d="M68.79 37.041h-5.229V.434h5.229a3.486 3.486 0 0 1 3.486 3.486v29.634a3.487 3.487 0 0 1-3.486 3.487z"/>
            <path stroke="#2A5082" stroke-width="2" d="M18.237 84.106v10.46M46.128 94.566L35.669 73.647H19.98c-5.776 0-10.459-4.684-10.459-10.459V37.041a6.973 6.973 0 0 1 6.972-6.973h6.973L35.668 42.27H47.87s1.001 8.716-6.973 8.716H28.695L18.237 40.527"/>
            <path stroke="#2A5082" stroke-width="2" d="M25.21 47.5v12.203h12.202a8.718 8.718 0 0 1 8.228 5.834l10.159 29.029M2.548 33.555v33.121c0 7.7 6.245 13.944 13.945 13.944h15.689"/>
            <path stroke="#2A5082" stroke-width="2" d="M2.548 59.703h13.946l5.23 6.973M89.709 50.986h3.486"/>
        </g>
        <path stroke="#2A5082" stroke-width="2" d="M11.345 113.822H103M104.452 113.822h7.333M114.334 113.822H118M4.834 113.822H8.5"/>
        <path stroke="#BCC0C4" stroke-width="2" d="M102.283 25.849v8.123M106.344 29.91h-8.122"/>
        <circle cx="110.405" cy="10.958" r="4.062" stroke="#BCC0C4" stroke-width="2"/>
        <path stroke="#BCC0C4" stroke-width="2" d="M58.936 10.652H46.287c-.938-1.833-3.145-3.722-5.717-3.722-.816 0-1.594.193-2.308.48C36.828 3.588 33.152.721 28.83.721c-5.561 0-10.069 6.266-10.08 9.932H3.945M13.109 25.316H.278M16.775 25.316h3.668M62.604 10.652h3.664M69.936 10.652h3.666"/>
    </g>
</svg>
