<svg xmlns="http://www.w3.org/2000/svg" width="114" height="115" viewBox="0 0 114 115">
    <g fill="none" fill-rule="evenodd">
        <path stroke="#2A5082" stroke-width="2" d="M7.345 113.822H99M100.452 113.822h7.333M110.334 113.822H114M.834 113.822H4.5"/>
        <path fill="#E9EAEB" fill-rule="nonzero" d="M35.714 92.854a5.741 5.741 0 0 1-5.741-5.74V36.516C18.056 42.551 9.882 54.905 9.882 69.176c0 20.21 16.384 36.595 36.595 36.595 11.178 0 21.179-5.017 27.891-12.916H35.714v-.001z"/>
        <path stroke="#2A5082" stroke-width="2" d="M62.98 92.854H35.714a5.741 5.741 0 0 1-5.741-5.74V23.97c0-3.17 2.57-5.741 5.741-5.741h47.358a5.74 5.74 0 0 1 5.74 5.741v37.312"/>
        <path stroke="#2A5082" stroke-width="2" d="M57.24 81.374H35.714V29.71h47.358v31.572"/>
        <path fill="#FFF" fill-rule="nonzero" d="M90.248 68.458h-2.87c0-1.614-1.525-2.87-2.87-2.87h-2.87c-.55-.862-1.967-1.436-2.871-1.436h-2.87V54.107a2.87 2.87 0 0 0-5.74 0v21.527l-1.917 1.84-3.75-5.813c-2.299-3.163-5.813-1.388-5.813 0 0 0 4.354 13.893 4.978 14.868 1.002 1.57 5.068 5.099 5.068 6.326v5.741h21.526V94.29c0-1.935 2.87-4.271 2.87-7.176V71.328c-.001-1.614-1.525-2.87-2.871-2.87z"/>
        <path stroke="#2A5082" stroke-width="2" d="M68.722 98.596v-5.741c0-1.228-4.066-4.756-5.068-6.326-.623-.976-4.978-14.868-4.978-14.868 0-1.388 3.515-3.163 5.813 0l3.75 5.813 1.917-1.84V54.107a2.87 2.87 0 0 1 5.74 0v18.657-8.612h2.87c.904 0 2.321.573 2.871 1.436h2.87c1.345 0 2.87 1.256 2.87 2.87h2.87c1.346 0 2.87 1.256 2.87 2.87v15.786c0 2.904-2.87 5.241-2.87 7.176v4.306M81.638 65.588v7.176M87.378 68.458v5.74"/>
        <path fill="#C1F6FD" fill-rule="nonzero" d="M65.852 97.16h27.267v16.176H65.852z"/>
        <path stroke="#2A5082" stroke-width="2" d="M93.118 113.336V97.16H65.852v16.176M54.37 23.97h11.482"/>
        <path fill="#FFF" fill-rule="nonzero" stroke="#2A5082" stroke-width="2" d="M58.705 49.802H41.484l-.03-14.351h17.222z"/>
        <path stroke="#2A5082" stroke-width="2" d="M62.98 38.321h15.787M62.98 44.061h11.482M40.019 55.542H60.11M40.019 61.282H60.11M40.019 67.022H51.5"/>
        <path stroke="#BCC0C4" stroke-width="2" d="M59.666 11.833h-12.65c-.937-1.833-3.144-3.722-5.717-3.722-.816 0-1.594.193-2.308.48-1.434-3.822-5.11-6.689-9.432-6.689-5.561 0-10.069 6.266-10.08 9.932H4.675M13.839 26.498H1.008M17.505 26.498h3.668M63.333 11.833h3.665M70.665 11.833h3.666"/>
    </g>
</svg>
