<svg xmlns="http://www.w3.org/2000/svg" width="122" height="110" viewBox="0 0 122 110">
    <g fill="none" fill-rule="evenodd" stroke-width="2" transform="translate(0 1)">
        <path stroke="#2A5082" d="M32.292 33.92h49.386V108H32.292z"/>
        <path fill="#E9EAEB" fill-rule="nonzero" stroke="#2A5082" d="M37.99 24.423h37.989v9.498H37.99zM53.186 92.805h11.395V108H53.186z"/>
        <path stroke="#2A5082" d="M41.789 60.514v-9.498h9.498v9.498M41.789 75.709v-9.498h9.498v9.498M13.297 60.514h18.995V108H13.297z"/>
        <path fill="#E9EAEB" fill-rule="nonzero" stroke="#2A5082" d="M18.995 51.016h13.297v9.498H18.995z"/>
        <path fill="#C1F6FD" fill-rule="nonzero" stroke="#2A5082" d="M81.818 47.217c-11.463 0-20.757 9.293-20.757 20.756 0 17.912 17.7 20.334 19.188 38.546.065.828.735 1.481 1.568 1.481.831 0 1.5-.653 1.564-1.481 1.489-18.212 19.19-20.634 19.19-38.546.002-11.463-9.293-20.756-20.753-20.756z"/>
        <circle cx="81.678" cy="68.112" r="7.598" fill="#FFF" fill-rule="nonzero" stroke="#2A5082"/>
        <path stroke="#2A5082" d="M7.598 108h94.975"/>
        <path stroke="#BCC0C4" d="M68.381 11.127H55.272c-.971-1.899-3.258-3.857-5.924-3.857-.845 0-1.651.2-2.391.497-1.486-3.96-5.295-6.931-9.774-6.931-5.762 0-10.434 6.493-10.445 10.292H11.397M20.894 26.323H7.598M121.566 20.625h-5.649c-1.313-3.799-4.04-4.746-7.307-4.35-1.425-2.455-4.049-3.966-7.094-3.966-4.52 0-8.182 2.618-8.223 8.316h-7.818M24.693 26.323h3.8M72.181 11.127h3.798M79.778 11.127h3.799"/>
        <path stroke="#2A5082" d="M3.799 108H0M106.37 108h7.599M117.768 108h3.798"/>
    </g>
</svg>
