<svg xmlns="http://www.w3.org/2000/svg" width="14" height="14" viewBox="0 0 14 14">
    <path fill="#919EAB" fill-rule="evenodd" d="M10.048 8.444c-.25 0-.47.055-.648.17-.529.339-.95.601-1.153.601-.112 0-.231-.1-.493-.326l-.044-.04c-.728-.632-.883-.795-1.165-1.09l-.072-.075c-.052-.052-.095-.1-.14-.143-.246-.255-.425-.438-1.057-1.154l-.028-.031c-.302-.342-.5-.565-.513-.728-.012-.16.127-.418.481-.899.43-.58.446-1.297.052-2.128-.314-.656-.827-1.285-1.28-1.837l-.04-.048C3.558.239 3.105 0 2.6 0c-.561 0-1.026.302-1.273.461-.02.012-.04.028-.06.04-.552.35-.954.831-1.105 1.32-.227.736-.378 1.69.708 3.676.938 1.718 1.79 2.871 3.141 4.26 1.273 1.304 1.838 1.725 3.102 2.64C8.521 13.415 9.873 14 10.82 14c.879 0 1.57 0 2.557-1.19 1.034-1.248.604-2.012-.016-2.652-.58-.597-2.231-1.714-3.313-1.714z" opacity=".7"/>
</svg>
