<!-- SVG Sprite -->
<svg width="0" height="0" class="hidden">
  <symbol xmlns="http://www.w3.org/2000/svg" viewBox="0 0 122 110" id="icon-home-1">
    <g fill="none" fill-rule="evenodd" stroke-width="2" transform="translate(0 1)">
      <path stroke="#2A5082" d="M32.292 33.92h49.386V108H32.292z"></path>
      <path fill="#E9EAEB" fill-rule="nonzero" stroke="#2A5082" d="M37.99 24.423h37.989v9.498H37.99zm15.196 68.382h11.395V108H53.186z"></path>
      <path stroke="#2A5082" d="M41.789 60.514v-9.498h9.498v9.498m-9.498 15.195v-9.498h9.498v9.498m-37.99-15.195h18.995V108H13.297z"></path>
      <path fill="#E9EAEB" fill-rule="nonzero" stroke="#2A5082" d="M18.995 51.016h13.297v9.498H18.995z"></path>
      <path fill="#C1F6FD" fill-rule="nonzero" stroke="#2A5082" d="M81.818 47.217c-11.463 0-20.757 9.293-20.757 20.756 0 17.912 17.7 20.334 19.188 38.546.065.828.735 1.481 1.568 1.481.831 0 1.5-.653 1.564-1.481 1.489-18.212 19.19-20.634 19.19-38.546.002-11.463-9.293-20.756-20.753-20.756z"></path>
      <circle cx="81.678" cy="68.112" r="7.598" fill="#FFF" fill-rule="nonzero" stroke="#2A5082"></circle>
      <path stroke="#2A5082" d="M7.598 108h94.975"></path>
      <path stroke="#BCC0C4" d="M68.381 11.127H55.272c-.971-1.899-3.258-3.857-5.924-3.857-.845 0-1.651.2-2.391.497-1.486-3.96-5.295-6.931-9.774-6.931-5.762 0-10.434 6.493-10.445 10.292H11.397m9.497 15.195H7.598m113.968-5.698h-5.649c-1.313-3.799-4.04-4.746-7.307-4.35-1.425-2.455-4.049-3.966-7.094-3.966-4.52 0-8.182 2.618-8.223 8.316h-7.818m-60.782 5.698h3.8m43.688-15.196h3.798m3.799 0h3.799"></path>
      <path stroke="#2A5082" d="M3.799 108H0m106.37 0h7.599m3.799 0h3.798"></path>
    </g>
  </symbol>
  <symbol xmlns="http://www.w3.org/2000/svg" viewBox="0 0 118 116" id="icon-home-2">
    <g fill="none" fill-rule="evenodd" transform="translate(0 1)">
      <g transform="translate(12 20)">
        <circle cx="42.643" cy="47.5" r="41.837" fill="#E9EAEB" fill-rule="nonzero"></circle>
        <path fill="#C1F6FD" fill-rule="nonzero" d="M45.64 65.537a8.718 8.718 0 00-8.228-5.834H25.21V47.5l3.486 3.486h12.202c7.974 0 6.973-8.716 6.973-8.716H35.669L23.467 30.068h-6.973a6.973 6.973 0 00-6.972 6.973v26.147c0 5.775 4.683 10.459 10.459 10.459h15.688l10.459 20.919h9.67L45.64 65.537z"></path>
        <path fill="#FFF" fill-rule="nonzero" stroke="#2A5082" stroke-width="2" d="M21.724 24.674c-4.867 0-8.716-3.982-8.716-8.894v-2.966c0-4.913 3.849-8.894 8.716-8.894 4.868 0 8.716 3.981 8.716 8.894v2.966c-.001 4.912-3.849 8.894-8.716 8.894z"></path>
        <path stroke="#2A5082" stroke-width="2" d="M25.21 50.986h61.012m-34.865-6.972h10.46v6.972m6.973 0v-6.972h10.459V23.095h-8.716"></path>
        <path fill="#FFF" fill-rule="nonzero" stroke="#2A5082" stroke-width="2" d="M68.79 37.041h-5.229V.434h5.229a3.486 3.486 0 013.486 3.486v29.634a3.487 3.487 0 01-3.486 3.487z"></path>
        <path stroke="#2A5082" stroke-width="2" d="M18.237 84.106v10.46m27.891 0L35.669 73.647H19.98c-5.776 0-10.459-4.684-10.459-10.459V37.041a6.973 6.973 0 016.972-6.973h6.973L35.668 42.27H47.87s1.001 8.716-6.973 8.716H28.695L18.237 40.527"></path>
        <path stroke="#2A5082" stroke-width="2" d="M25.21 47.5v12.203h12.202a8.718 8.718 0 018.228 5.834l10.159 29.029M2.548 33.555v33.121c0 7.7 6.245 13.944 13.945 13.944h15.689"></path>
        <path stroke="#2A5082" stroke-width="2" d="M2.548 59.703h13.946l5.23 6.973m67.985-15.69h3.486"></path>
      </g>
      <path stroke="#2A5082" stroke-width="2" d="M11.345 113.822H103m1.452 0h7.333m2.549 0H118m-113.166 0H8.5"></path>
      <path stroke="#BCC0C4" stroke-width="2" d="M102.283 25.849v8.123m4.061-4.062h-8.122"></path>
      <circle cx="110.405" cy="10.958" r="4.062" stroke="#BCC0C4" stroke-width="2"></circle>
      <path stroke="#BCC0C4" stroke-width="2" d="M58.936 10.652H46.287c-.938-1.833-3.145-3.722-5.717-3.722-.816 0-1.594.193-2.308.48C36.828 3.588 33.152.721 28.83.721c-5.561 0-10.069 6.266-10.08 9.932H3.945m9.164 14.663H.278m16.497 0h3.668m42.161-14.664h3.664m3.668 0h3.666"></path>
    </g>
  </symbol>
    <symbol xmlns="http://www.w3.org/2000/svg" viewBox="0 0 114 115" id="icon-home-3">
    <g fill="none" fill-rule="evenodd">
      <path stroke="#2A5082" stroke-width="2" d="M7.345 113.822H99m1.452 0h7.333m2.549 0H114m-113.166 0H4.5"></path>
      <path fill="#E9EAEB" fill-rule="nonzero" d="M35.714 92.854a5.741 5.741 0 01-5.741-5.74V36.516C18.056 42.551 9.882 54.905 9.882 69.176c0 20.21 16.384 36.595 36.595 36.595 11.178 0 21.179-5.017 27.891-12.916H35.714v-.001z"></path>
      <path stroke="#2A5082" stroke-width="2" d="M62.98 92.854H35.714a5.741 5.741 0 01-5.741-5.74V23.97c0-3.17 2.57-5.741 5.741-5.741h47.358a5.74 5.74 0 015.74 5.741v37.312"></path>
      <path stroke="#2A5082" stroke-width="2" d="M57.24 81.374H35.714V29.71h47.358v31.572"></path>
      <path fill="#FFF" fill-rule="nonzero" d="M90.248 68.458h-2.87c0-1.614-1.525-2.87-2.87-2.87h-2.87c-.55-.862-1.967-1.436-2.871-1.436h-2.87V54.107a2.87 2.87 0 00-5.74 0v21.527l-1.917 1.84-3.75-5.813c-2.299-3.163-5.813-1.388-5.813 0 0 0 4.354 13.893 4.978 14.868 1.002 1.57 5.068 5.099 5.068 6.326v5.741h21.526V94.29c0-1.935 2.87-4.271 2.87-7.176V71.328c-.001-1.614-1.525-2.87-2.871-2.87z"></path>
      <path stroke="#2A5082" stroke-width="2" d="M68.722 98.596v-5.741c0-1.228-4.066-4.756-5.068-6.326-.623-.976-4.978-14.868-4.978-14.868 0-1.388 3.515-3.163 5.813 0l3.75 5.813 1.917-1.84V54.107a2.87 2.87 0 015.74 0v18.657-8.612h2.87c.904 0 2.321.573 2.871 1.436h2.87c1.345 0 2.87 1.256 2.87 2.87h2.87c1.346 0 2.87 1.256 2.87 2.87v15.786c0 2.904-2.87 5.241-2.87 7.176v4.306m-8.609-33.008v7.176m5.74-4.306v5.74"></path>
      <path fill="#C1F6FD" fill-rule="nonzero" d="M65.852 97.16h27.267v16.176H65.852z"></path>
      <path stroke="#2A5082" stroke-width="2" d="M93.118 113.336V97.16H65.852v16.176M54.37 23.97h11.482"></path>
      <path fill="#FFF" fill-rule="nonzero" stroke="#2A5082" stroke-width="2" d="M58.705 49.802H41.484l-.03-14.351h17.222z"></path>
      <path stroke="#2A5082" stroke-width="2" d="M62.98 38.321h15.787m-15.787 5.74h11.482M40.019 55.542H60.11m-20.091 5.74H60.11m-20.091 5.74H51.5"></path>
      <path stroke="#BCC0C4" stroke-width="2" d="M59.666 11.833h-12.65c-.937-1.833-3.144-3.722-5.717-3.722-.816 0-1.594.193-2.308.48-1.434-3.822-5.11-6.689-9.432-6.689-5.561 0-10.069 6.266-10.08 9.932H4.675m9.164 14.664H1.008m16.497 0h3.668m42.16-14.665h3.665m3.667 0h3.666"></path>
    </g>
  </symbol>
    <symbol xmlns="http://www.w3.org/2000/svg" viewBox="0 0 185 39" id="logo">
    <g fill="none" fill-rule="evenodd"><text fill="#454F5B" font-family="OpenSans" font-weight="700" font-size="24">
        <tspan x="87" y="29">FairRate</tspan>
      </text>
      <path fill="#4AD5F6" d="M27 6l27 33H0L27 6zm-4 27h8V22h-8v11z"></path>
      <path fill="#95CDB1" d="M54 0L40 16h27L54 0"></path>
      <path fill="#FFC48B" d="M69 18L55 34h27L69 18"></path>
    </g>
  </symbol>
    <symbol xmlns="http://www.w3.org/2000/svg" viewBox="0 0 42 42" id="page-1">
    <path fill="#4AD5F6" fill-rule="evenodd" d="M21 0C9.403 0 0 9.403 0 21s9.403 21 21 21 21-9.403 21-21S32.597 0 21 0zm16.716 14.297l-5.766 1.772a11.968 11.968 0 00-2.466-3.563 11.968 11.968 0 00-3.562-2.465l1.772-5.766c2.231.89 4.275 2.24 6.028 3.984a18.043 18.043 0 013.994 6.038zM21 30c-4.969 0-9-4.031-9-9s4.031-9 9-9 9 4.031 9 9-4.031 9-9 9zM8.269 8.269a17.886 17.886 0 016.028-3.985l1.772 5.766a11.968 11.968 0 00-3.563 2.466 11.968 11.968 0 00-2.465 3.562l-5.766-1.772A18.14 18.14 0 018.269 8.27zM4.284 27.703l5.766-1.772a11.968 11.968 0 002.466 3.563 11.968 11.968 0 003.562 2.465l-1.772 5.766a18.026 18.026 0 01-6.028-3.984 18.043 18.043 0 01-3.994-6.038zm29.447 6.028a17.886 17.886 0 01-6.028 3.985l-1.772-5.766a11.968 11.968 0 003.563-2.466 11.968 11.968 0 002.465-3.562l5.766 1.772a18.14 18.14 0 01-3.994 6.037z"></path>
  </symbol>
  
    <symbol xmlns="http://www.w3.org/2000/svg" viewBox="0 0 14 14" id="phone-icon">
    <path fill="#919EAB" fill-rule="evenodd" d="M10.048 8.444c-.25 0-.47.055-.648.17-.529.339-.95.601-1.153.601-.112 0-.231-.1-.493-.326l-.044-.04c-.728-.632-.883-.795-1.165-1.09l-.072-.075c-.052-.052-.095-.1-.14-.143-.246-.255-.425-.438-1.057-1.154l-.028-.031c-.302-.342-.5-.565-.513-.728-.012-.16.127-.418.481-.899.43-.58.446-1.297.052-2.128-.314-.656-.827-1.285-1.28-1.837l-.04-.048C3.558.239 3.105 0 2.6 0c-.561 0-1.026.302-1.273.461-.02.012-.04.028-.06.04-.552.35-.954.831-1.105 1.32-.227.736-.378 1.69.708 3.676.938 1.718 1.79 2.871 3.141 4.26 1.273 1.304 1.838 1.725 3.102 2.64C8.521 13.415 9.873 14 10.82 14c.879 0 1.57 0 2.557-1.19 1.034-1.248.604-2.012-.016-2.652-.58-.597-2.231-1.714-3.313-1.714z" opacity=".7"></path>
  </symbol>

  <symbol xmlns="http://www.w3.org/2000/svg" viewBox="0 0 46 46" id="call-us-icon">
    <g fill="none" fill-rule="evenodd">
      <circle cx="23" cy="23" r="23" fill="#2DCCD2"></circle>
      <path fill="#FFF" d="M19.328 27.206c-8.485-8.486-5.28-11.691-5.28-11.691l2.458-2.458a1.057 1.057 0 011.49-.005l2.758 2.757c.408.409.406 1.08-.006 1.49l-1.596 1.597a1.506 1.506 0 00-.189 1.912c.927 1.355 2.077 2.654 3.096 3.667 1.012 1.018 2.311 2.168 3.667 3.095a1.506 1.506 0 001.911-.189l1.597-1.596a1.057 1.057 0 011.49-.005l2.758 2.757c.408.409.406 1.08-.006 1.49l-2.457 2.458s-3.206 3.206-11.691-5.28z"></path>
    </g>
  </symbol>

    <symbol xmlns="http://www.w3.org/2000/svg" viewBox="0 0 33 33" id="facebook">
    <path fill="#6B7C93" fill-rule="evenodd" d="M0 16.5C0 7.387 7.387 0 16.5 0S33 7.387 33 16.5 25.613 33 16.5 33 0 25.613 0 16.5zM17.32 26v-9.001h2.366L20 13.897h-2.68l.004-1.552c0-.81.073-1.243 1.18-1.243h1.48V8h-2.368c-2.843 0-3.844 1.505-3.844 4.035v1.862H12V17h1.772v9h3.548z"></path>
  </symbol>
    <symbol xmlns="http://www.w3.org/2000/svg" viewBox="0 0 33 33" id="linked-in">
    <path fill="#6B7C93" fill-rule="evenodd" d="M0 16.5C0 7.387 7.387 0 16.5 0S33 7.387 33 16.5 25.613 33 16.5 33 0 25.613 0 16.5zm25 1.337c0-3.3-1.616-4.837-3.771-4.837-1.74 0-2.517 1.045-2.953 1.775v.036h-.021l.021-.036v-1.523H15C15.044 14.261 15 24 15 24h3.276v-6.003c0-.322.022-.64.109-.87.237-.643.775-1.307 1.68-1.307 1.186 0 1.66.986 1.66 2.43V24H25v-6.163zM11.012 8C9.796 8 9 8.864 9 10c0 1.11.773 2 1.966 2h.023c1.24 0 2.011-.89 2.011-2-.024-1.136-.771-2-1.988-2zM9 23h3V13H9v10z"></path>
  </symbol>
    <symbol xmlns="http://www.w3.org/2000/svg" viewBox="0 0 33 33" id="twitter">
    <path fill="#6B7C93" fill-rule="evenodd" d="M0 16.5C0 7.387 7.387 0 16.5 0S33 7.387 33 16.5 25.613 33 16.5 33 0 25.613 0 16.5zm26-5.725a7.23 7.23 0 01-2.12.596 3.788 3.788 0 001.623-2.094 7.331 7.331 0 01-2.347.92A3.64 3.64 0 0020.461 9c-2.039 0-3.692 1.696-3.692 3.787 0 .297.032.586.095.863-3.068-.158-5.789-1.666-7.61-3.958-.318.559-.5 1.21-.5 1.904 0 1.315.653 2.474 1.643 3.153a3.622 3.622 0 01-1.673-.476v.048c0 1.835 1.274 3.366 2.962 3.714-.31.086-.636.133-.973.133-.238 0-.47-.024-.695-.07.47 1.505 1.833 2.6 3.448 2.63A7.29 7.29 0 018 22.297 10.247 10.247 0 0013.66 24c6.793 0 10.505-5.772 10.505-10.778l-.012-.49A7.481 7.481 0 0026 10.775z"></path>
  </symbol>
  
</svg>
















<!-- SVG References -->
<svg>
  <use xlink:href="#icon-home-1"></use>
</svg>
<svg>
  <use xlink:href="#icon-home-2"></use>
</svg>
<svg>
  <use xlink:href="#logo"></use>
</svg>
<svg>
  <use xlink:href="#page-1"></use>
</svg>
<svg>
  <use xlink:href="#phone-icon"></use>
</svg>
<svg>
  <use xlink:href="#call-us-icon"></use>
</svg>
<svg>
  <use xlink:href="#facebook"></use>
</svg>
<svg>
  <use xlink:href="#linked-in"></use>
</svg>
<svg>
  <use xlink:href="#twitter"></use>
</svg>



